<svg xmlns="http://www.w3.org/2000/svg" version="1.1" xmlns:xlink="http://www.w3.org/1999/xlink" xmlns:svgjs="http://svgjs.dev/svgjs" width="1500" height="935" viewBox="0 0 1500 935"><g transform="matrix(1,0,0,1,-0.9090909090909918,0.3785425101214628)"><svg viewBox="0 0 396 247" data-background-color="#000000" preserveAspectRatio="xMidYMid meet" height="935" width="1500" xmlns="http://www.w3.org/2000/svg" xmlns:xlink="http://www.w3.org/1999/xlink"><g id="tight-bounds" transform="matrix(1,0,0,1,0.2400000000000091,-0.09999999999999432)"><svg viewBox="0 0 395.52 247.2" height="247.2" width="395.52"><rect width="395.52" height="247.2" fill="url(#31d69238-2042-46d6-aa2f-2cf1a218ce73)" mask="url(#1b152811-6a81-4229-8260-0886cafaec9a)" data-fill-palette-color="tertiary"></rect><g><svg></svg></g><g><svg viewBox="0 0 395.52 247.2" height="247.2" width="395.52"><g transform="matrix(1,0,0,1,75.54432,62.87468169014084)"><svg viewBox="0 0 244.43135999999998 121.45063661971831" height="121.45063661971831" width="244.43135999999998"><g><svg viewBox="0 0 244.43135999999998 121.45063661971831" height="121.45063661971831" width="244.43135999999998"><g><svg viewBox="0 0 244.43135999999998 121.45063661971831" height="121.45063661971831" width="244.43135999999998"><g><svg viewBox="0 0 244.43135999999998 121.45063661971831" height="121.45063661971831" width="244.43135999999998"><g id="textblocktransform"><svg viewBox="0 0 244.43135999999998 121.45063661971831" height="121.45063661971831" width="244.43135999999998" id="textblock"><g><svg viewBox="0 0 244.43135999999998 121.45063661971831" height="121.45063661971831" width="244.43135999999998"><g transform="matrix(1,0,0,1,0,0)"><svg width="244.43135999999998" viewBox="3.05 -26.15 63.900000000000006 31.75" height="121.45063661971831" data-palette-color="url(#4a0e9a10-388c-4b2a-a20a-001687c997d7)"></svg></g></svg></g></svg></g></svg></g></svg></g></svg></g></svg></g><g><path d="M245.816 0c68.262 0 123.6 55.338 123.6 123.6 0 68.262-55.338 123.6-123.6 123.6-40.031 0-75.618-19.031-98.206-48.539h6.993c21.665 26.297 54.481 43.063 91.213 43.063 65.238 0 118.124-52.886 118.123-118.124 0-65.238-52.886-118.124-118.123-118.124-36.732 0-69.548 16.766-91.213 43.063l-6.993 0c22.588-29.508 58.174-48.539 98.206-48.539z" fill="url(#31d69238-2042-46d6-aa2f-2cf1a218ce73)" stroke="transparent" data-fill-palette-color="tertiary"></path></g></svg></g><defs></defs><mask id="c21cb252-20c8-40e5-bb02-d52c9dea3721"><g id="SvgjsG1812"><svg viewBox="0 0 395.52 247.2" height="247.2" width="395.52"><g><svg></svg></g><g><svg viewBox="0 0 395.52 247.2" height="247.2" width="395.52"><g transform="matrix(1,0,0,1,75.54432,62.87468169014084)"><svg viewBox="0 0 244.43135999999998 121.45063661971831" height="121.45063661971831" width="244.43135999999998"><g><svg viewBox="0 0 244.43135999999998 121.45063661971831" height="121.45063661971831" width="244.43135999999998"><g><svg viewBox="0 0 244.43135999999998 121.45063661971831" height="121.45063661971831" width="244.43135999999998"><g><svg viewBox="0 0 244.43135999999998 121.45063661971831" height="121.45063661971831" width="244.43135999999998"><g id="SvgjsG1811"><svg viewBox="0 0 244.43135999999998 121.45063661971831" height="121.45063661971831" width="244.43135999999998" id="SvgjsSvg1810"><g><svg viewBox="0 0 244.43135999999998 121.45063661971831" height="121.45063661971831" width="244.43135999999998"><g transform="matrix(1,0,0,1,0,0)"><svg width="244.43135999999998" viewBox="3.05 -26.15 63.900000000000006 31.75" height="121.45063661971831" data-palette-color="url(#4a0e9a10-388c-4b2a-a20a-001687c997d7)"><path d="M34.5-0.4L34.5-0.4 34.5 0 22.9 0Q22.7-2.75 22.05-5.9L22.05-5.9Q18.55-2.4 15.05 0L15.05 0 3.4 0Q3.05-2.05 3.05-5.43 3.05-8.8 4.05-12.2L4.05-12.2Q7.65-13.25 10.98-15.75 14.3-18.25 15.8-21.15L15.8-21.15Q14.4-23.35 12.95-25L12.95-25 29.55-25Q34.5-14.15 34.5-0.4ZM21.15-9.55L21.15-9.55Q19.9-13.85 17.75-17.95L17.75-17.95Q15.4-11.05 15.05-4.9L15.05-4.9Q18.75-6.9 21.15-9.55ZM56.55-22L56.55-22Q54.55-22.3 52.27-22.3 50-22.3 47.85-22L47.85-22Q49.2-19.7 51.05-18.25 52.9-16.8 55.72-15.38 58.55-13.95 60.32-12.75 62.1-11.55 64.25-8.8 66.4-6.05 66.95-3.05L66.95-3.05Q64.55 0.05 60.6 2.43 56.65 4.8 52.5 5.6L52.5 5.6Q49.7 5.35 45.42 4.03 41.15 2.7 39 2.7 36.85 2.7 34.7 4.05L34.7 4.05Q35.6 1.5 37.65-2.35L37.65-2.35 38.05-2.35Q41.25-2.35 44.07-1.35 46.9-0.35 49.22 0.65 51.55 1.65 52.97 1.65 54.4 1.65 55.05 1.45L55.05 1.45Q55.05-1.85 53-4L53-4Q51.9-5.15 51.12-5.78 50.35-6.4 48.75-7.5L48.75-7.5 47.9-8.1Q44.5-10.45 42.3-12.88 40.1-15.3 39.1-18.85L39.1-18.85Q40.7-22.4 42.25-25L42.25-25Q47-26.15 52.1-26.15L52.1-26.15 54.3-26.15Q58.6-26.15 64.15-24.95L64.15-24.95Q63.35-21.65 62.2-19L62.2-19Q58-18.7 55.7-18.7L55.7-18.7Q56.15-19.85 56.55-22Z" opacity="1" transform="matrix(1,0,0,1,0,0)" fill="white" class="wordmark-text-0" id="SvgjsPath1809"></path></svg></g></svg></g></svg></g></svg></g></svg></g></svg></g></svg></g><g><path d="M245.816 0c68.262 0 123.6 55.338 123.6 123.6 0 68.262-55.338 123.6-123.6 123.6-40.031 0-75.618-19.031-98.206-48.539h6.993c21.665 26.297 54.481 43.063 91.213 43.063 65.238 0 118.124-52.886 118.123-118.124 0-65.238-52.886-118.124-118.123-118.124-36.732 0-69.548 16.766-91.213 43.063l-6.993 0c22.588-29.508 58.174-48.539 98.206-48.539z" fill="black" stroke="transparent"></path></g></svg></g><defs><mask></mask></defs></svg><rect width="395.52" height="247.2" fill="black" stroke="none" visibility="hidden"></rect></g></mask><linearGradient x1="0" x2="1" y1="0.5" y2="0.5" id="4a0e9a10-388c-4b2a-a20a-001687c997d7"><stop stop-color="#ffa62e" offset="0"></stop><stop stop-color="#f71b3d" offset="1"></stop></linearGradient><rect width="395.52" height="247.2" fill="url(#4a0e9a10-388c-4b2a-a20a-001687c997d7)" mask="url(#c21cb252-20c8-40e5-bb02-d52c9dea3721)" data-fill-palette-color="primary"></rect><mask id="1b152811-6a81-4229-8260-0886cafaec9a"><g id="SvgjsG1835"><svg viewBox="0 0 395.52 247.2" height="247.2" width="395.52"><g><svg></svg></g><g><svg viewBox="0 0 395.52 247.2" height="247.2" width="395.52"><g transform="matrix(1,0,0,1,75.54432,62.87468169014084)"><svg viewBox="0 0 244.43135999999998 121.45063661971831" height="121.45063661971831" width="244.43135999999998"><g><svg viewBox="0 0 244.43135999999998 121.45063661971831" height="121.45063661971831" width="244.43135999999998"><g><svg viewBox="0 0 244.43135999999998 121.45063661971831" height="121.45063661971831" width="244.43135999999998"><g><svg viewBox="0 0 244.43135999999998 121.45063661971831" height="121.45063661971831" width="244.43135999999998"><g id="SvgjsG1834"><svg viewBox="0 0 244.43135999999998 121.45063661971831" height="121.45063661971831" width="244.43135999999998" id="SvgjsSvg1833"><g><svg viewBox="0 0 244.43135999999998 121.45063661971831" height="121.45063661971831" width="244.43135999999998"><g transform="matrix(1,0,0,1,0,0)"><svg width="244.43135999999998" viewBox="3.05 -26.15 63.900000000000006 31.75" height="121.45063661971831" data-palette-color="url(#4a0e9a10-388c-4b2a-a20a-001687c997d7)"></svg></g></svg></g></svg></g></svg></g></svg></g></svg></g></svg></g><g><path d="M245.816 0c68.262 0 123.6 55.338 123.6 123.6 0 68.262-55.338 123.6-123.6 123.6-40.031 0-75.618-19.031-98.206-48.539h6.993c21.665 26.297 54.481 43.063 91.213 43.063 65.238 0 118.124-52.886 118.123-118.124 0-65.238-52.886-118.124-118.123-118.124-36.732 0-69.548 16.766-91.213 43.063l-6.993 0c22.588-29.508 58.174-48.539 98.206-48.539z" fill="white" stroke="transparent"></path></g></svg></g><defs><mask></mask></defs><mask><g id="SvgjsG1832"><svg viewBox="0 0 395.52 247.2" height="247.2" width="395.52"><g><svg></svg></g><g><svg viewBox="0 0 395.52 247.2" height="247.2" width="395.52"><g transform="matrix(1,0,0,1,75.54432,62.87468169014084)"><svg viewBox="0 0 244.43135999999998 121.45063661971831" height="121.45063661971831" width="244.43135999999998"><g><svg viewBox="0 0 244.43135999999998 121.45063661971831" height="121.45063661971831" width="244.43135999999998"><g><svg viewBox="0 0 244.43135999999998 121.45063661971831" height="121.45063661971831" width="244.43135999999998"><g><svg viewBox="0 0 244.43135999999998 121.45063661971831" height="121.45063661971831" width="244.43135999999998"><g id="SvgjsG1831"><svg viewBox="0 0 244.43135999999998 121.45063661971831" height="121.45063661971831" width="244.43135999999998" id="SvgjsSvg1830"><g><svg viewBox="0 0 244.43135999999998 121.45063661971831" height="121.45063661971831" width="244.43135999999998"><g transform="matrix(1,0,0,1,0,0)"><svg width="244.43135999999998" viewBox="3.05 -26.15 63.900000000000006 31.75" height="121.45063661971831" data-palette-color="url(#4a0e9a10-388c-4b2a-a20a-001687c997d7)"><path d="M34.5-0.4L34.5-0.4 34.5 0 22.9 0Q22.7-2.75 22.05-5.9L22.05-5.9Q18.55-2.4 15.05 0L15.05 0 3.4 0Q3.05-2.05 3.05-5.43 3.05-8.8 4.05-12.2L4.05-12.2Q7.65-13.25 10.98-15.75 14.3-18.25 15.8-21.15L15.8-21.15Q14.4-23.35 12.95-25L12.95-25 29.55-25Q34.5-14.15 34.5-0.4ZM21.15-9.55L21.15-9.55Q19.9-13.85 17.75-17.95L17.75-17.95Q15.4-11.05 15.05-4.9L15.05-4.9Q18.75-6.9 21.15-9.55ZM56.55-22L56.55-22Q54.55-22.3 52.27-22.3 50-22.3 47.85-22L47.85-22Q49.2-19.7 51.05-18.25 52.9-16.8 55.72-15.38 58.55-13.95 60.32-12.75 62.1-11.55 64.25-8.8 66.4-6.05 66.95-3.05L66.95-3.05Q64.55 0.05 60.6 2.43 56.65 4.8 52.5 5.6L52.5 5.6Q49.7 5.35 45.42 4.03 41.15 2.7 39 2.7 36.85 2.7 34.7 4.05L34.7 4.05Q35.6 1.5 37.65-2.35L37.65-2.35 38.05-2.35Q41.25-2.35 44.07-1.35 46.9-0.35 49.22 0.65 51.55 1.65 52.97 1.65 54.4 1.65 55.05 1.45L55.05 1.45Q55.05-1.85 53-4L53-4Q51.9-5.15 51.12-5.78 50.35-6.4 48.75-7.5L48.75-7.5 47.9-8.1Q44.5-10.45 42.3-12.88 40.1-15.3 39.1-18.85L39.1-18.85Q40.7-22.4 42.25-25L42.25-25Q47-26.15 52.1-26.15L52.1-26.15 54.3-26.15Q58.6-26.15 64.15-24.95L64.15-24.95Q63.35-21.65 62.2-19L62.2-19Q58-18.7 55.7-18.7L55.7-18.7Q56.15-19.85 56.55-22Z" opacity="1" transform="matrix(1,0,0,1,0,0)" fill="black" class="wordmark-text-0" id="SvgjsPath1829"></path></svg></g></svg></g></svg></g></svg></g></svg></g></svg></g></svg></g><g><path d="M245.816 0c68.262 0 123.6 55.338 123.6 123.6 0 68.262-55.338 123.6-123.6 123.6-40.031 0-75.618-19.031-98.206-48.539h6.993c21.665 26.297 54.481 43.063 91.213 43.063 65.238 0 118.124-52.886 118.123-118.124 0-65.238-52.886-118.124-118.123-118.124-36.732 0-69.548 16.766-91.213 43.063l-6.993 0c22.588-29.508 58.174-48.539 98.206-48.539z" fill="black" stroke="transparent"></path></g></svg></g><defs><mask></mask></defs></svg><rect width="395.52" height="247.2" fill="black" stroke="none" visibility="hidden"></rect></g></mask></svg><rect width="395.52" height="247.2" fill="black" stroke="none" visibility="hidden"></rect></g></mask><linearGradient x1="0" x2="1" y1="0.5" y2="0.5" id="31d69238-2042-46d6-aa2f-2cf1a218ce73"><stop stop-color="#ffa62e" offset="0"></stop><stop stop-color="#f71b3d" offset="1"></stop></linearGradient></svg><rect width="395.52" height="247.2" fill="none" stroke="none" visibility="hidden"></rect></g></svg></g></svg>